<svg width="32" height="32" viewBox="0 0 32 32" fill="none" xmlns="http://www.w3.org/2000/svg">
<circle cx="16" cy="16" r="16" fill="#EDB733"/>
<path d="M14.5542 10.24L11.1712 6.33503C10.7812 5.88503 10.0662 5.88703 9.61323 6.34103L6.83123 9.12803C6.00323 9.95703 5.76623 11.188 6.24523 12.175C9.10685 18.1 13.8853 22.8851 19.8062 25.755C20.7922 26.234 22.0222 25.997 22.8502 25.168L25.6582 22.355C26.1132 21.9 26.1142 21.181 25.6602 20.791L21.7402 17.426C21.3302 17.074 20.6932 17.12 20.2822 17.532L18.9182 18.898C18.8484 18.9712 18.7565 19.0195 18.6566 19.0354C18.5567 19.0513 18.4543 19.0339 18.3652 18.986C16.1357 17.7021 14.2862 15.8503 13.0052 13.619C12.9573 13.5298 12.9399 13.4273 12.9558 13.3272C12.9717 13.2271 13.02 13.135 13.0932 13.065L14.4532 11.704C14.8652 11.29 14.9102 10.65 14.5542 10.239V10.24Z" stroke="#FEFAF1" stroke-width="2" stroke-linecap="round" stroke-linejoin="round"/>
</svg>
