<svg width="32" height="32" viewBox="0 0 32 32" fill="none" xmlns="http://www.w3.org/2000/svg">
<path d="M26 20H20V18H26V20Z" fill="#111111"/>
<path d="M30 28H24V26H30V28Z" fill="#111111"/>
<path d="M28 24H22V22H28V24Z" fill="#111111"/>
<path d="M17.0034 20C16.9963 19.1562 16.7713 18.3286 16.3501 17.5974C15.9289 16.8662 15.3258 16.2564 14.5994 15.827L22.0004 3L20.2704 2L12.6934 15.126C11.7635 14.9183 10.7963 14.947 9.88041 15.2096C8.96448 15.4721 8.129 15.9602 7.45038 16.629C3.70638 20.24 3.99638 28.682 4.01038 29.04C4.02072 29.2982 4.13062 29.5424 4.31705 29.7214C4.50348 29.9004 4.75195 30.0002 5.01038 30H20.0014C20.2113 30 20.4158 29.934 20.5861 29.8112C20.7564 29.6885 20.8837 29.5153 20.9501 29.3162C21.0164 29.1171 21.0185 28.9022 20.9559 28.7018C20.8933 28.5015 20.7693 28.3259 20.6014 28.2C17.0614 25.544 17.0034 20.054 17.0034 20ZM11.9304 16.997C12.7308 17.0058 13.4969 17.3228 14.0695 17.8822C14.642 18.4415 14.9769 19.2001 15.0044 20C15.0044 20.038 15.0064 20.208 15.0214 20.469L9.12138 17.845C9.51002 17.5245 9.9585 17.2845 10.4407 17.1389C10.923 16.9934 11.4293 16.9451 11.9304 16.997ZM15.4504 28C14.6511 27.1861 14.1416 26.132 14.0004 25H12.0004C12.072 26.0643 12.4044 27.0946 12.9684 28H10.7454C10.3341 26.7022 10.0839 25.3588 10.0004 24H8.00038C8.06487 25.3547 8.28806 26.6973 8.66538 28H6.00038C6.03138 26.164 6.29038 22.108 7.80338 19.447L15.3364 22.797C15.6983 24.6763 16.4699 26.4528 17.5964 28H15.4504Z" fill="#111111"/>
</svg>
