<svg width="32" height="32" viewBox="0 0 32 32" fill="none" xmlns="http://www.w3.org/2000/svg">
<path d="M26.5837 10.6678H27.9997C28.7069 10.6678 29.3852 10.9488 29.8853 11.4489C30.3854 11.949 30.6663 12.6273 30.6663 13.3345V18.6678C30.6663 19.3751 30.3854 20.0534 29.8853 20.5535C29.3852 21.0536 28.7069 21.3345 27.9997 21.3345H26.5837C26.2586 23.9122 25.004 26.2827 23.0553 28.0012C21.1066 29.7196 18.5978 30.6678 15.9997 30.6678V28.0012C18.1214 28.0012 20.1562 27.1583 21.6565 25.658C23.1568 24.1577 23.9997 22.1229 23.9997 20.0012V12.0012C23.9997 9.87944 23.1568 7.84461 21.6565 6.34432C20.1562 4.84402 18.1214 4.00117 15.9997 4.00117C13.8779 4.00117 11.8431 4.84402 10.3428 6.34432C8.84253 7.84461 7.99967 9.87944 7.99967 12.0012V21.3345H3.99967C3.29243 21.3345 2.61415 21.0536 2.11406 20.5535C1.61396 20.0534 1.33301 19.3751 1.33301 18.6678V13.3345C1.33301 12.6273 1.61396 11.949 2.11406 11.4489C2.61415 10.9488 3.29243 10.6678 3.99967 10.6678H5.41567C5.74105 8.09036 6.99578 5.7202 8.94444 4.00207C10.8931 2.28394 13.4017 1.33594 15.9997 1.33594C18.5976 1.33594 21.1062 2.28394 23.0549 4.00207C25.0036 5.7202 26.2583 8.09036 26.5837 10.6678ZM3.99967 13.3345V18.6678H5.33301V13.3345H3.99967ZM26.6663 13.3345V18.6678H27.9997V13.3345H26.6663ZM10.3463 21.0478L11.7597 18.7865C13.0304 19.5825 14.5002 20.0036 15.9997 20.0012C17.4992 20.0036 18.9689 19.5825 20.2397 18.7865L21.653 21.0478C19.9587 22.1094 17.9991 22.6709 15.9997 22.6678C14.0003 22.6709 12.0407 22.1094 10.3463 21.0478Z" fill="#111111"/>
</svg>
