<svg width="32" height="32" viewBox="0 0 32 32" fill="none" xmlns="http://www.w3.org/2000/svg">
<circle cx="16" cy="16" r="16" fill="#EDB733"/>
<path d="M25.334 8H6.66732C6.3137 8 5.97456 8.14048 5.72451 8.39052C5.47446 8.64057 5.33398 8.97971 5.33398 9.33333V22.6667C5.33398 23.0203 5.47446 23.3594 5.72451 23.6095C5.97456 23.8595 6.3137 24 6.66732 24H25.334C25.6876 24 26.0267 23.8595 26.2768 23.6095C26.5268 23.3594 26.6673 23.0203 26.6673 22.6667V9.33333C26.6673 8.97971 26.5268 8.64057 26.2768 8.39052C26.0267 8.14048 25.6876 8 25.334 8ZM24.3073 22.6667H7.77398L12.4407 17.84L11.4807 16.9133L6.66732 21.8933V10.3467L14.954 18.5933C15.2038 18.8417 15.5417 18.9811 15.894 18.9811C16.2462 18.9811 16.5842 18.8417 16.834 18.5933L25.334 10.14V21.8067L20.4273 16.9L19.4873 17.84L24.3073 22.6667ZM7.54065 9.33333H24.254L15.894 17.6467L7.54065 9.33333Z" fill="#FEFAF1"/>
</svg>
