<svg width="25" height="23" viewBox="0 0 25 23" fill="none" xmlns="http://www.w3.org/2000/svg">
<path d="M12.0145 4.12207L10.939 3.01657C8.41449 0.421573 3.78549 1.31707 2.11449 4.57957C1.32999 6.11407 1.15299 8.32957 2.58549 11.1571C3.96549 13.8796 6.83649 17.1406 12.0145 20.6926C17.1925 17.1406 20.062 13.8796 21.4435 11.1571C22.876 8.32807 22.7005 6.11407 21.9145 4.57957C20.2435 1.31707 15.6145 0.420073 13.09 3.01507L12.0145 4.12207ZM12.0145 22.5001C-10.985 7.30207 4.93299 -4.55993 11.7505 1.71457C11.8405 1.79707 11.929 1.88257 12.0145 1.97107C12.0991 1.88265 12.1872 1.79759 12.2785 1.71607C19.0945 -4.56293 35.014 7.30057 12.0145 22.5001Z" fill="#111111"/>
</svg>
