<svg width="32" height="32" viewBox="0 0 32 32" fill="none" xmlns="http://www.w3.org/2000/svg">
<path d="M29.7562 7.03906H2.25285C1.36837 7.03906 0.644531 7.84354 0.644531 8.63906C0.644531 9.43458 1.36837 10.2384 2.25285 10.2384H2.64133V13.4384H29.4068V10.2384H29.7562C30.6413 10.2384 31.3645 9.43458 31.3645 8.63906C31.3645 7.84354 30.6413 7.03906 29.7562 7.03906ZM16.0045 11.8519C15.5604 11.8519 15.2007 11.4813 15.2007 11.025C15.2007 10.5687 15.5604 10.1981 16.0045 10.1981C16.4493 10.1981 16.8084 10.5687 16.8084 11.025C16.8084 11.4813 16.4493 11.8519 16.0045 11.8519ZM2.64133 19.8378H29.4068V14.7191H2.64133V19.8378ZM16.0045 16.3984C16.4493 16.3984 16.8084 16.7683 16.8084 17.2247C16.8084 17.6816 16.4493 18.0515 16.0045 18.0515C15.5604 18.0515 15.2007 17.6816 15.2007 17.2247C15.2001 16.7683 15.5604 16.3984 16.0045 16.3984ZM2.64133 24.2519V27.9728C2.64133 28.4272 2.69829 28.7997 3.14053 28.7997H6.35589C6.79813 28.7997 6.99845 28.4272 6.99845 27.9728V25.5984H25.0497V27.9728C25.0497 28.4272 25.2109 28.7997 25.6525 28.7997H28.8685C29.3095 28.7997 29.4061 28.4272 29.4061 27.9728V21.1191H2.64133V24.2519ZM16.0045 22.5987C16.4493 22.5987 16.8084 22.9693 16.8084 23.425C16.8084 23.8826 16.4493 24.2512 16.0045 24.2512C15.5604 24.2512 15.2007 23.8826 15.2007 23.425C15.2001 22.9699 15.5604 22.5987 16.0045 22.5987Z" fill="#111111"/>
</svg>
