<svg width="32" height="32" viewBox="0 0 32 32" fill="none" xmlns="http://www.w3.org/2000/svg">
<path d="M9.33318 17.334C9.80341 17.3339 10.2653 17.4582 10.672 17.6942C11.0787 17.9302 11.4158 18.2696 11.649 18.6779C11.8823 19.0862 12.0034 19.5489 12.0002 20.0191C11.9969 20.4893 11.8694 20.9503 11.6305 21.3553L7.97852 17.7033C8.38873 17.4608 8.85666 17.3333 9.33318 17.334Z" fill="#111111"/>
<path d="M7.03628 18.6445C6.73563 19.1539 6.61282 19.7487 6.68718 20.3354C6.76154 20.9222 7.02886 21.4675 7.44707 21.8857C7.86528 22.304 8.41065 22.5713 8.9974 22.6456C9.58415 22.72 10.179 22.5972 10.6883 22.2965L7.03628 18.6445Z" fill="#111111"/>
<path fill-rule="evenodd" clip-rule="evenodd" d="M7.33333 4C7.15652 4 6.98695 4.07024 6.86193 4.19526C6.7369 4.32029 6.66667 4.48986 6.66667 4.66667V6.88867C6.66667 7.06548 6.7369 7.23505 6.86193 7.36007C6.98695 7.4851 7.15652 7.55533 7.33333 7.55533H8.66667V8.66667H6.33333C6.06812 8.66508 5.81313 8.76891 5.62447 8.95532C5.43581 9.14173 5.32892 9.39545 5.32733 9.66067C5.32574 9.92588 5.42957 10.1809 5.61598 10.3695C5.8024 10.5582 6.05612 10.6651 6.32133 10.6667C6.3136 10.7031 6.30221 10.7386 6.28733 10.7727L4.112 15.7447C4.03826 15.913 4.00012 16.0948 4 16.2787V27.3333C4 27.5101 4.07024 27.6797 4.19526 27.8047C4.32029 27.9298 4.48986 28 4.66667 28H14C14.1768 28 14.3464 27.9298 14.4714 27.8047C14.5964 27.6797 14.6667 27.5101 14.6667 27.3333V16.2787C14.6665 16.0948 14.6284 15.913 14.5547 15.7447L12.3793 10.772C12.3647 10.7381 12.3536 10.7028 12.346 10.6667C12.4773 10.6658 12.6072 10.6391 12.7282 10.5881C12.8492 10.5371 12.959 10.4627 13.0513 10.3693C13.1435 10.2758 13.2165 10.1651 13.266 10.0435C13.3155 9.92186 13.3405 9.79166 13.3397 9.66033C13.3388 9.52901 13.3121 9.39914 13.2611 9.27813C13.2101 9.15712 13.1357 9.04735 13.0423 8.95508C12.9488 8.86281 12.8381 8.78985 12.7165 8.74036C12.5949 8.69088 12.4647 8.66583 12.3333 8.66667H10V7.55533H11.3333C11.5101 7.55533 11.6797 7.4851 11.8047 7.36007C11.9298 7.23505 12 7.06548 12 6.88867V4.66667C12 4.48986 11.9298 4.32029 11.8047 4.19526C11.6797 4.07024 11.5101 4 11.3333 4H7.33333ZM9.33333 6.66667C9.56911 6.66667 9.79523 6.573 9.96195 6.40628C10.1287 6.23956 10.2223 6.01344 10.2223 5.77767C10.2223 5.54189 10.1287 5.31577 9.96195 5.14905C9.79523 4.98233 9.56911 4.88867 9.33333 4.88867C9.09756 4.88867 8.87144 4.98233 8.70472 5.14905C8.538 5.31577 8.44433 5.54189 8.44433 5.77767C8.44433 6.01344 8.538 6.23956 8.70472 6.40628C8.87144 6.573 9.09756 6.66667 9.33333 6.66667ZM9.33333 16C10.3942 16 11.4116 16.4214 12.1618 17.1716C12.9119 17.9217 13.3333 18.9391 13.3333 20C13.3333 21.0609 12.9119 22.0783 12.1618 22.8284C11.4116 23.5786 10.3942 24 9.33333 24C8.27247 24 7.25505 23.5786 6.50491 22.8284C5.75476 22.0783 5.33333 21.0609 5.33333 20C5.33333 18.9391 5.75476 17.9217 6.50491 17.1716C7.25505 16.4214 8.27247 16 9.33333 16Z" fill="#111111"/>
<path d="M28 26.6675C28 27.4041 27.5833 28.0008 24.6667 28.0008C22.3367 28.0008 21.602 27.6201 21.4007 27.0915C21.1587 27.4361 20.706 27.7241 20.15 27.8448C19.6773 27.9481 19.222 27.9101 18.872 27.7661C18.326 28.0641 17.622 28.1095 17.02 27.7201C16.352 27.2881 16 26.4455 16 25.3341C16 25.1573 16.0702 24.9878 16.1953 24.8627C16.3203 24.7377 16.4899 24.6675 16.6667 24.6675C16.8435 24.6675 17.013 24.7377 17.1381 24.8627C17.2631 24.9878 17.3333 25.1573 17.3333 25.3341C17.3333 26.2008 17.6027 26.5088 17.7447 26.6008C17.888 26.6941 18.0933 26.6968 18.2873 26.5621L18.314 26.5448C18.514 26.1268 19.0207 25.7608 19.6647 25.6201C20.5533 25.4268 21.3807 25.7315 21.5593 26.3041C21.708 26.1668 21.926 26.0221 22.1973 25.8875L20.82 24.2928H20.056C19.9081 24.2929 19.7628 24.2536 19.6351 24.1789C19.5074 24.1043 19.4019 23.997 19.3293 23.8681L18.086 21.6615C18.0027 21.5077 17.9831 21.3274 18.0315 21.1593C18.0799 20.9913 18.1924 20.8489 18.3447 20.7631C18.4971 20.6772 18.6771 20.6546 18.8459 20.7002C19.0148 20.7458 19.1589 20.8559 19.2473 21.0068L20.3473 22.9588H20.9727C21.2633 22.9588 21.5393 23.0855 21.7293 23.3055L23.2127 25.0235C23.326 25.1548 23.3793 25.3181 23.3747 25.4788C23.4687 25.4575 23.5647 25.4388 23.6627 25.4215L23.752 23.9401L22.7953 23.3881C22.5732 23.26 22.4088 23.0514 22.3361 22.8055C22.2634 22.5596 22.2879 22.2951 22.4047 22.0668L23.264 20.3848C23.3022 20.3042 23.3563 20.2321 23.4229 20.1728C23.4895 20.1134 23.5673 20.0681 23.6518 20.0394C23.7363 20.0107 23.8256 19.9992 23.9146 20.0057C24.0036 20.0121 24.0903 20.0364 24.1698 20.077C24.2492 20.1176 24.3197 20.1737 24.377 20.2421C24.4344 20.3104 24.4774 20.3896 24.5036 20.4748C24.5298 20.5601 24.5386 20.6498 24.5295 20.7385C24.5204 20.8273 24.4936 20.9133 24.4507 20.9915L23.736 22.3915L24.5967 22.8881C24.7576 22.9811 24.8894 23.117 24.9774 23.2807C25.0653 23.4444 25.106 23.6293 25.0947 23.8148L25.0033 25.3441L25.124 25.3521L26.3593 24.2115L25.7307 23.1535C25.6558 23.0275 25.6154 22.884 25.6136 22.7375C25.6119 22.5909 25.6488 22.4465 25.7207 22.3188L26.6687 20.6328C26.7116 20.5565 26.7691 20.4893 26.8379 20.4352C26.9068 20.3811 26.9856 20.3411 27.0699 20.3174C27.1542 20.2938 27.2424 20.287 27.3293 20.2974C27.4163 20.3078 27.5003 20.3352 27.5767 20.3781C27.653 20.421 27.7202 20.4785 27.7743 20.5474C27.8284 20.6162 27.8684 20.6951 27.8921 20.7794C27.9157 20.8637 27.9225 20.9519 27.9121 21.0388C27.9017 21.1257 27.8742 21.2098 27.8313 21.2861L27.0247 22.7208L27.6433 23.7621C27.7604 23.959 27.8063 24.1901 27.7734 24.4168C27.7406 24.6435 27.6308 24.852 27.4627 25.0075L26.7093 25.7028C27.4947 26.0008 28 26.4095 28 26.6675Z" fill="#111111"/>
<path fill-rule="evenodd" clip-rule="evenodd" d="M27.333 13.2C27.7437 13.4253 27.9997 13.8567 27.9997 14.3267V17.3333H21.333V14.3267C21.333 13.8567 21.589 13.4253 21.9997 13.2V8.13333C21.589 7.908 21.333 7.47667 21.333 7.00667V4H27.9997V7.00667C27.9997 7.47667 27.7437 7.908 27.333 8.13333V13.2ZM23.333 8.104C23.333 7.634 23.077 7.20267 22.6663 6.97733V6.514H26.6663V6.978C26.2557 7.20267 25.9997 7.634 25.9997 8.104V13.2293C25.9997 13.6993 26.2557 14.1307 26.6663 14.356V14.8193H22.6663V14.3553C23.077 14.1307 23.333 13.6993 23.333 13.2293V8.104Z" fill="#111111"/>
</svg>
