<svg width="32" height="32" viewBox="0 0 32 32" fill="none" xmlns="http://www.w3.org/2000/svg">
<circle cx="16" cy="16" r="16" fill="#FEFAF1"/>
<path d="M16.0005 4C12.7387 4 12.3322 4.01575 11.0557 4.06975C9.77395 4.13275 8.90695 4.3315 8.14195 4.6285C7.3413 4.93077 6.6162 5.40401 6.0172 6.01525C5.40426 6.61285 4.93075 7.33835 4.63045 8.14C4.33345 8.905 4.1347 9.772 4.0717 11.0538C4.01395 12.331 4.00195 12.7367 4.00195 15.9985C4.00195 19.2603 4.0177 19.6667 4.0717 20.9432C4.1347 22.2213 4.33345 23.092 4.63045 23.857C4.93272 24.6577 5.40596 25.3828 6.0172 25.9818C6.6148 26.5947 7.3403 27.0682 8.14195 27.3685C8.90695 27.6618 9.7777 27.8643 11.0557 27.9272C12.333 27.985 12.7387 27.997 16.0005 27.997C19.2622 27.997 19.6687 27.9813 20.9452 27.9272C22.2232 27.8643 23.094 27.661 23.859 27.3685C24.6596 27.0662 25.3847 26.593 25.9837 25.9818C26.5974 25.3848 27.0711 24.6591 27.3705 23.857C27.6637 23.092 27.8662 22.2213 27.9292 20.9432C27.987 19.666 27.999 19.2603 27.999 15.9985C27.999 12.7367 27.9832 12.3302 27.9292 11.0538C27.8662 9.77575 27.663 8.9005 27.3705 8.14C27.0682 7.33935 26.5949 6.61425 25.9837 6.01525C25.3868 5.40152 24.6611 4.92788 23.859 4.6285C23.094 4.3315 22.2232 4.13275 20.9452 4.06975C19.668 4.012 19.2622 4 16.0005 4ZM16.0005 6.16C19.2037 6.16 19.5862 6.17575 20.8522 6.22975C22.02 6.2845 22.656 6.4795 23.0782 6.6445C23.6002 6.83719 24.0727 7.14389 24.4612 7.54225C24.8589 7.92912 25.1644 8.40051 25.3552 8.9215C25.5202 9.34375 25.7152 9.97975 25.77 11.1475C25.8239 12.4135 25.8397 12.7968 25.8397 15.9992C25.8397 19.2017 25.824 19.585 25.7655 20.851C25.7025 22.0188 25.5075 22.6548 25.3432 23.077C25.116 23.6403 24.8624 24.034 24.444 24.46C24.0541 24.8559 23.582 25.1611 23.061 25.354C22.644 25.519 21.999 25.714 20.8267 25.7687C19.554 25.8228 19.179 25.8385 15.9675 25.8385C12.756 25.8385 12.3817 25.8228 11.1075 25.7642C9.9397 25.7013 9.29545 25.5063 8.8732 25.342C8.3032 25.1147 7.91245 24.8612 7.49395 24.4427C7.0717 24.0205 6.8032 23.6185 6.5962 23.0597C6.4282 22.6427 6.2362 21.9977 6.17395 20.8255C6.1312 19.5677 6.11095 19.1778 6.11095 15.9813C6.11095 12.7863 6.1312 12.3955 6.17395 11.122C6.2362 9.94975 6.4282 9.30625 6.5962 8.88775C6.8032 8.317 7.07245 7.927 7.49395 7.50475C7.9117 7.087 8.3032 6.817 8.8732 6.6055C9.29545 6.44125 9.92395 6.24625 11.0962 6.18775C12.369 6.142 12.744 6.1255 15.951 6.1255L16.0005 6.16ZM16.0005 9.84025C15.1915 9.83995 14.3903 9.99908 13.6429 10.3085C12.8954 10.618 12.2162 11.0717 11.6442 11.6437C11.0721 12.2158 10.6184 12.8949 10.309 13.6424C9.99953 14.3899 9.84041 15.191 9.8407 16C9.84041 16.809 9.99953 17.6101 10.309 18.3576C10.6184 19.1051 11.0721 19.7842 11.6442 20.3563C12.2162 20.9283 12.8954 21.382 13.6429 21.6915C14.3903 22.0009 15.1915 22.16 16.0005 22.1597C16.8094 22.16 17.6106 22.0009 18.358 21.6915C19.1055 21.382 19.7847 20.9283 20.3567 20.3563C20.9288 19.7842 21.3825 19.1051 21.6919 18.3576C22.0014 17.6101 22.1605 16.809 22.1602 16C22.1605 15.191 22.0014 14.3899 21.6919 13.6424C21.3825 12.8949 20.9288 12.2158 20.3567 11.6437C19.7847 11.0717 19.1055 10.618 18.358 10.3085C17.6106 9.99908 16.8094 9.83995 16.0005 9.84025ZM16.0005 19.9998C13.7895 19.9998 12.0007 18.211 12.0007 16C12.0007 13.789 13.7895 12.0002 16.0005 12.0002C18.2115 12.0002 20.0002 13.789 20.0002 16C20.0002 18.211 18.2115 19.9998 16.0005 19.9998ZM23.8485 9.59425C23.8481 9.9765 23.6959 10.343 23.4255 10.6131C23.1551 10.8833 22.7885 11.035 22.4062 11.035C22.2172 11.035 22.03 10.9978 21.8554 10.9254C21.6808 10.8531 21.5221 10.7471 21.3885 10.6135C21.2549 10.4798 21.1488 10.3211 21.0765 10.1465C21.0042 9.97191 20.967 9.78475 20.967 9.59575C20.967 9.40674 21.0042 9.21959 21.0765 9.04497C21.1488 8.87036 21.2549 8.71169 21.3885 8.57805C21.5221 8.4444 21.6808 8.33839 21.8554 8.26606C22.03 8.19373 22.2172 8.1565 22.4062 8.1565C23.199 8.1565 23.8485 8.8015 23.8485 9.59425Z" fill="#2F88FF"/>
</svg>
