<svg width="32" height="32" viewBox="0 0 32 32" fill="none" xmlns="http://www.w3.org/2000/svg">
<path d="M23.9997 2.67935L7.99967 2.66602C6.51967 2.66602 5.33301 3.85268 5.33301 5.33268V26.666C5.33301 28.146 6.51967 29.3327 7.99967 29.3327H23.9997C25.4797 29.3327 26.6663 28.146 26.6663 26.666V5.33268C26.6663 3.85268 25.4797 2.67935 23.9997 2.67935ZM23.9997 26.666H7.99967L7.98634 5.33268H23.9997V26.666Z" fill="#111111"/>
<path d="M10.6663 9.33268C11.4027 9.33268 11.9997 8.73573 11.9997 7.99935C11.9997 7.26297 11.4027 6.66602 10.6663 6.66602C9.92996 6.66602 9.33301 7.26297 9.33301 7.99935C9.33301 8.73573 9.92996 9.33268 10.6663 9.33268Z" fill="#111111"/>
<path d="M14.6663 9.33268C15.4027 9.33268 15.9997 8.73573 15.9997 7.99935C15.9997 7.26297 15.4027 6.66602 14.6663 6.66602C13.93 6.66602 13.333 7.26297 13.333 7.99935C13.333 8.73573 13.93 9.33268 14.6663 9.33268Z" fill="#111111"/>
<path d="M15.9997 25.3333C19.6797 25.3333 22.6663 22.3467 22.6663 18.6667C22.6663 14.9867 19.6797 12 15.9997 12C12.3197 12 9.33301 14.9867 9.33301 18.6667C9.33301 22.3467 12.3197 25.3333 15.9997 25.3333ZM19.1463 15.52C20.8797 17.2533 20.8797 20.08 19.1463 21.8133C17.413 23.5467 14.5863 23.5467 12.853 21.8133L19.1463 15.52Z" fill="#111111"/>
</svg>
