<svg width="32" height="32" viewBox="0 0 32 32" fill="none" xmlns="http://www.w3.org/2000/svg">
<circle cx="16" cy="16" r="16" fill="#FEFAF1"/>
<g clip-path="url(#clip0_764_278)">
<path d="M24.4491 24.4495H20.8931V18.8804C20.8931 17.5525 20.8694 15.8429 19.0436 15.8429C17.1915 15.8429 16.9081 17.2899 16.9081 18.7838V24.4491H13.3521V12.997H16.7658V14.562H16.8137C17.1553 13.9779 17.649 13.4973 18.2421 13.1715C18.8353 12.8458 19.5057 12.687 20.1819 12.7121C23.7861 12.7121 24.4506 15.0828 24.4506 18.167L24.4491 24.4495ZM9.33963 11.4316C8.19991 11.4318 7.27581 10.508 7.27562 9.36828C7.27544 8.22856 8.19916 7.30447 9.33887 7.30428C10.4786 7.304 11.4027 8.22781 11.4029 9.36753C11.403 9.91484 11.1857 10.4398 10.7987 10.8269C10.4118 11.214 9.88694 11.4315 9.33963 11.4316ZM11.1177 24.4496H7.55791V12.997H11.1176V24.4495L11.1177 24.4496ZM26.2219 4.00175H5.77103C4.80447 3.99087 4.01181 4.76515 4 5.73172V26.2679C4.01144 27.235 4.804 28.01 5.77094 27.9999H26.2219C27.1909 28.0119 27.9866 27.2368 28 26.2679V5.73012C27.9862 4.76168 27.1905 3.9875 26.2219 4.00015" fill="#0A66C2"/>
</g>
<defs>
<clipPath id="clip0_764_278">
<rect x="4" y="4" width="24" height="24" rx="4" fill="white"/>
</clipPath>
</defs>
</svg>
