<svg width="32" height="32" viewBox="0 0 32 32" fill="none" xmlns="http://www.w3.org/2000/svg">
<g clip-path="url(#clip0_780_1379)">
<path d="M16 0C9.33809 0 3.9375 5.40056 3.9375 12.0625C3.9375 14.2904 4.37358 16.5915 5.62499 18.25L16 32L26.375 18.25C27.5117 16.7436 28.0625 14.0805 28.0625 12.0625C28.0625 5.40056 22.6619 0 16 0ZM16 6.98632C18.8031 6.98632 21.0762 9.25941 21.0762 12.0625C21.0762 14.8656 18.8031 17.1387 16 17.1387C13.1969 17.1387 10.9238 14.8656 10.9238 12.0625C10.9238 9.25941 13.1969 6.98632 16 6.98632Z" fill="#EDB733"/>
</g>
<defs>
<clipPath id="clip0_780_1379">
<rect width="32" height="32" fill="white"/>
</clipPath>
</defs>
</svg>
