<svg width="32" height="32" viewBox="0 0 32 32" fill="none" xmlns="http://www.w3.org/2000/svg">
<g clip-path="url(#clip0_666_40)">
<path d="M1.616 0L0 1.616L2.84677 6.53908L4.69292 6.26831L15.9618 17.5385L15.0006 18.4615C14.5083 18.9538 14.5083 19.6997 15.0006 20.192L15.5003 20.6929C15.9926 21.1852 16.7458 21.1852 17.1151 20.6929L18.5772 22.1538C18.4542 22.8923 18.5772 23.7698 19.1926 24.3852L25.8462 31.0006C27.2 32.3545 29.4154 32.3545 30.7692 31.0006C32.3692 29.5237 32.3545 27.3157 31.0006 25.9618L24.3852 19.3071C23.7698 18.6917 22.8923 18.4455 22.1538 18.6917L20.5378 17.2308C20.9071 16.7385 20.9071 15.9852 20.5378 15.6148L20.0763 15.1545C19.9644 15.0378 19.8301 14.9449 19.6814 14.8815C19.5327 14.8181 19.3727 14.7854 19.2111 14.7854C19.0494 14.7854 18.8894 14.8181 18.7408 14.8815C18.5921 14.9449 18.4577 15.0378 18.3458 15.1545L17.5385 15.9618L6.26954 4.69292L6.53785 2.84677L1.61477 0L1.616 0ZM25.616 0.0381538C23.1877 -0.163692 19.968 1.44615 18.4615 2.84554C16.608 4.69908 16.9108 7.12246 18.384 9.46215L15.7698 12.0775L17.616 14.1538C18.6006 13.2923 20.0529 13.2923 21.0375 14.1538L21.5385 14.6535L21.6542 14.7692L22.7311 13.6923C24.9563 15.0006 27.2726 15.1889 29.0388 13.4228C30.7618 11.8228 32.6302 7.87692 31.7686 5.53846L28.3077 9.11508C27.8154 9.60738 27.0695 9.60738 26.5772 9.11508L22.9994 5.53846C22.8827 5.42658 22.7899 5.29225 22.7264 5.14356C22.663 4.99487 22.6303 4.83488 22.6303 4.67323C22.6303 4.51158 22.663 4.3516 22.7264 4.2029C22.7899 4.05421 22.8827 3.91989 22.9994 3.808L26.5785 0.231385C26.2708 0.123077 25.9631 0.0676923 25.616 0.0381538ZM12.0775 15.3846L7.61477 19.8462C7.13521 19.7396 6.64508 19.688 6.15385 19.6923C2.70769 19.6923 0 22.4 0 25.8462C0 29.2923 2.70769 32 6.15385 32C9.6 32 12.3077 29.2923 12.3077 25.8462C12.3077 25.2148 12.208 24.608 12.0382 24.0382L14.6535 21.4228L14.2695 20.9231C13.2849 19.9385 13.2923 18.4468 14.1538 17.4609L12.0763 15.3846H12.0775ZM21.616 21.0006C21.7698 21.0006 21.9151 21.0302 22.0382 21.1545L29.3083 28.4234C29.5545 28.6695 29.5545 29.0609 29.3083 29.3071C29.0622 29.5532 28.6683 29.5532 28.4222 29.3071L21.1545 22.0382C20.9083 21.792 20.9083 21.4006 21.1545 21.1545C21.2775 21.0314 21.4622 21.0006 21.616 21.0006ZM7.00062 22.6523L9.34646 24.9994L8.49969 28.1908L5.30831 29.0375L2.96123 26.6905L3.808 23.4991L7.00062 22.6523Z" fill="#111111"/>
</g>
<defs>
<clipPath id="clip0_666_40">
<rect width="32" height="32" fill="white"/>
</clipPath>
</defs>
</svg>
