<svg width="32" height="32" viewBox="0 0 32 32" fill="none" xmlns="http://www.w3.org/2000/svg">
<path d="M6.00033 16.0007C7.84127 16.0007 9.33366 14.5083 9.33366 12.6673C9.33366 10.8264 7.84127 9.33398 6.00033 9.33398C4.15938 9.33398 2.66699 10.8264 2.66699 12.6673C2.66699 14.5083 4.15938 16.0007 6.00033 16.0007Z" fill="#111111"/>
<path d="M12.0003 10.6667C13.8413 10.6667 15.3337 9.17428 15.3337 7.33333C15.3337 5.49238 13.8413 4 12.0003 4C10.1594 4 8.66699 5.49238 8.66699 7.33333C8.66699 9.17428 10.1594 10.6667 12.0003 10.6667Z" fill="#111111"/>
<path d="M20.0003 10.6667C21.8413 10.6667 23.3337 9.17428 23.3337 7.33333C23.3337 5.49238 21.8413 4 20.0003 4C18.1594 4 16.667 5.49238 16.667 7.33333C16.667 9.17428 18.1594 10.6667 20.0003 10.6667Z" fill="#111111"/>
<path d="M25.9993 16.0007C27.8403 16.0007 29.3327 14.5083 29.3327 12.6673C29.3327 10.8264 27.8403 9.33398 25.9993 9.33398C24.1584 9.33398 22.666 10.8264 22.666 12.6673C22.666 14.5083 24.1584 16.0007 25.9993 16.0007Z" fill="#111111"/>
<path d="M23.1195 19.8133C21.9595 18.4533 20.9862 17.2933 19.8129 15.9333C19.1995 15.2133 18.4129 14.4933 17.4795 14.1733C17.3329 14.12 17.1862 14.08 17.0395 14.0533C16.7062 14 16.3462 14 15.9995 14C15.6529 14 15.2929 14 14.9462 14.0667C14.7995 14.0933 14.6529 14.1333 14.5062 14.1867C13.5729 14.5067 12.7995 15.2267 12.1729 15.9467C11.0129 17.3067 10.0395 18.4667 8.86621 19.8267C7.11954 21.5733 4.97287 23.5067 5.37287 26.2133C5.75954 27.5733 6.73287 28.92 8.47954 29.3067C9.45287 29.5067 12.5595 28.72 15.8662 28.72H16.1062C19.4129 28.72 22.5195 29.4933 23.4929 29.3067C25.2395 28.92 26.2129 27.56 26.5995 26.2133C27.0129 23.4933 24.8662 21.56 23.1195 19.8133Z" fill="#111111"/>
</svg>
