<svg width="32" height="32" viewBox="0 0 32 32" fill="none" xmlns="http://www.w3.org/2000/svg">
<path d="M16 8.66602C16.2652 8.66602 16.5196 8.56066 16.7071 8.37312C16.8946 8.18559 17 7.93123 17 7.66602C17 7.4008 16.8946 7.14645 16.7071 6.95891C16.5196 6.77137 16.2652 6.66602 16 6.66602C15.7348 6.66602 15.4804 6.77137 15.2929 6.95891C15.1054 7.14645 15 7.4008 15 7.66602C15 7.93123 15.1054 8.18559 15.2929 8.37312C15.4804 8.56066 15.7348 8.66602 16 8.66602Z" fill="#111111"/>
<path fill-rule="evenodd" clip-rule="evenodd" d="M15.8773 4.01095L15.872 4.01228L15.8567 4.01495L15.8013 4.02561L15.5947 4.06695C15.4173 4.10295 15.1647 4.15628 14.8627 4.22495C14.2593 4.36228 13.4493 4.56295 12.636 4.81428C11.8307 5.06295 10.9873 5.37228 10.3333 5.73428C10.008 5.91428 9.696 6.12561 9.458 6.37428C9.22133 6.62028 9 6.96495 9 7.39761C9 8.56095 9.32667 9.41295 9.672 9.98428C9.842 10.2656 10.0147 10.4756 10.1507 10.6196C10.1573 10.6963 10.1673 10.7823 10.186 10.8756C10.2533 11.2263 10.422 11.6729 10.8087 12.1069C10.6245 12.8898 10.6198 13.7041 10.7949 14.489C10.97 15.274 11.3203 16.0091 11.8196 16.6395C12.3189 17.2699 12.9544 17.7792 13.6784 18.1294C14.4023 18.4795 15.1961 18.6614 16.0003 18.6614C16.8045 18.6614 17.5983 18.4795 18.3223 18.1294C19.0463 17.7792 19.6817 17.2699 20.1811 16.6395C20.6804 16.0091 21.0307 15.274 21.2058 14.489C21.3808 13.7041 21.3761 12.8898 21.192 12.1069C21.578 11.6729 21.7467 11.2269 21.814 10.8756C21.8327 10.7823 21.8433 10.6963 21.8493 10.6196C22.0309 10.4254 22.1914 10.2124 22.328 9.98428C22.674 9.41295 23 8.56095 23 7.39761C23 6.96495 22.7787 6.62028 22.542 6.37428C22.304 6.12561 21.992 5.91428 21.6667 5.73428C21.0127 5.37228 20.1693 5.06295 19.3633 4.81428C18.6289 4.59042 17.8864 4.39384 17.1373 4.22495C16.8254 4.15387 16.5125 4.08719 16.1987 4.02495L16.1433 4.01495L16.128 4.01228L16.1227 4.01095L16 3.98828L15.8773 4.01095ZM16 4.66628L16.1227 4.01095L16 4.66628ZM15.8773 4.01095L16 4.66628L15.8773 4.01095ZM16 12.3329C17.4713 12.3329 18.4593 12.1423 19.12 11.8943C19.6793 11.6843 20.0053 11.4336 20.1933 11.2223C20.262 11.1456 20.316 11.0709 20.3587 10.9996H11.6413C11.684 11.0709 11.738 11.1463 11.806 11.2223C11.9953 11.4336 12.3207 11.6843 12.8793 11.8943C13.5407 12.1423 14.5287 12.3329 16 12.3329ZM20.9147 9.66628H11.0853C10.9831 9.55097 10.8919 9.42644 10.8127 9.29428C10.584 8.91628 10.336 8.30495 10.3333 7.41161C10.3556 7.36881 10.3849 7.33005 10.42 7.29695C10.528 7.18428 10.7107 7.04895 10.9793 6.90095C11.5127 6.60561 12.2527 6.32828 13.03 6.08761C13.7322 5.87411 14.442 5.68664 15.158 5.52561C15.4379 5.46192 15.7186 5.40191 16 5.34561C16.038 5.35228 16.0847 5.36228 16.1387 5.37295C16.308 5.40762 16.5507 5.45961 16.842 5.52561C17.426 5.65828 18.2 5.85028 18.97 6.08828C19.7473 6.32828 20.4873 6.60561 21.0207 6.90095C21.2893 7.04895 21.472 7.18428 21.5807 7.29695C21.6407 7.36028 21.6607 7.39761 21.6667 7.41161C21.664 8.30495 21.416 8.91628 21.1867 9.29428C21.088 9.45895 20.99 9.58161 20.9147 9.66628ZM12 13.3329C12 13.2129 12.0053 13.0943 12.0153 12.9769C12.9073 13.3949 14.1847 13.6663 16 13.6663C17.5633 13.6663 18.726 13.4663 19.588 13.1429C19.728 13.0909 19.86 13.0349 19.9847 12.9763C20.0319 13.514 19.9698 14.0556 19.8021 14.5687C19.6344 15.0817 19.3647 15.5555 19.0091 15.9615C18.6535 16.3676 18.2194 16.6974 17.7329 16.9313C17.2464 17.1651 16.7177 17.298 16.1785 17.3221C15.6393 17.3462 15.1008 17.2609 14.5954 17.0714C14.09 16.8819 13.6283 16.592 13.2379 16.2193C12.8475 15.8466 12.5365 15.3988 12.3238 14.9027C12.1111 14.4067 12.0009 13.8727 12 13.3329ZM10.3313 7.41761V7.41561V7.41761Z" fill="#111111"/>
<path d="M22.0003 22.666C22.445 23.1107 23.3337 23.5547 23.3337 23.5547C23.3337 23.5547 22.8683 25.3327 22.0003 25.3327C21.1323 25.3327 20.667 23.5547 20.667 23.5547C20.667 23.5547 21.5557 23.1107 22.0003 22.666Z" fill="#111111"/>
<path fill-rule="evenodd" clip-rule="evenodd" d="M13.6667 20.6654C13.6667 20.3117 13.8071 19.9726 14.0572 19.7226C14.3072 19.4725 14.6464 19.332 15 19.332H17C17.3536 19.332 17.6928 19.4725 17.9428 19.7226C18.1929 19.9726 18.3333 20.3117 18.3333 20.6654V21.5867C18.3333 21.8038 18.2803 22.0176 18.1789 22.2095C18.0774 22.4014 17.9307 22.5657 17.7513 22.688L17.8267 23.0654L20.1147 20.2874C20.1918 20.1937 20.293 20.1228 20.4074 20.0824C20.5219 20.042 20.6451 20.0335 20.764 20.058C22.4733 20.4127 24.222 20.95 25.5607 21.6874C26.8553 22.4007 28 23.436 28 24.864V27.332C28 27.5088 27.9298 27.6784 27.8047 27.8034C27.6797 27.9285 27.5101 27.9987 27.3333 27.9987H4.66667C4.48986 27.9987 4.32029 27.9285 4.19526 27.8034C4.07024 27.6784 4 27.5088 4 27.332V24.864C4 23.444 5.16667 22.4154 6.46133 21.708C7.80533 20.9727 9.55467 20.4314 11.2433 20.072C11.3627 20.0467 11.4868 20.0546 11.602 20.0949C11.7172 20.1352 11.8191 20.2064 11.8967 20.3007L14.1833 23.078L14.2553 22.6927C14.074 22.5706 13.9255 22.4058 13.8228 22.2129C13.7202 22.0199 13.6666 21.8046 13.6667 21.586V20.6654ZM16.3467 22.4627L16.7327 24.394L16 25.2834L15.2907 24.422L15.6553 22.4534C15.6817 22.3111 15.6612 22.1641 15.5967 22.0346C15.5322 21.9051 15.4274 21.8001 15.298 21.7354L15 21.5867V20.6654H17V21.5867L16.702 21.736C16.5712 21.8014 16.4655 21.9079 16.4011 22.0392C16.3368 22.1705 16.3174 22.3193 16.346 22.4627H16.3467ZM16.5887 26.6654L20.8847 21.4487C22.3913 21.786 23.836 22.26 24.9167 22.8554C26.136 23.5267 26.6667 24.2207 26.6667 24.864V26.6654H16.5893H16.5887ZM11.126 21.4634L15.4107 26.6654H5.33333V24.864C5.33333 24.2414 5.86667 23.5527 7.10067 22.8774C8.18933 22.282 9.63667 21.8054 11.1273 21.4634H11.126Z" fill="#111111"/>
</svg>
