<svg width="32" height="32" viewBox="0 0 32 32" fill="none" xmlns="http://www.w3.org/2000/svg">
<path d="M15.9972 31.7217C15.9964 31.7217 15.9964 31.7217 15.9972 31.7217C11.7876 31.7217 7.83797 30.0889 4.87397 27.1249C1.90917 24.1601 0.276367 20.2097 0.276367 16.0017C0.276367 11.7937 1.90917 7.8441 4.87397 4.8801C7.84037 1.9129 11.7916 0.279297 15.998 0.279297C20.202 0.279297 24.1524 1.9137 27.1196 4.8809C33.2516 11.0137 33.2516 20.9929 27.1196 27.1257C24.154 30.0889 20.2044 31.7217 15.9972 31.7217ZM15.998 1.0793C12.0052 1.0793 8.25557 2.6305 5.43957 5.4457C2.62597 8.2593 1.07637 12.0081 1.07637 16.0017C1.07637 19.9961 2.62597 23.7457 5.43957 26.5593C8.25237 29.3729 12.002 30.9217 15.9964 30.9217H15.9972C19.9908 30.9217 23.7396 29.3721 26.5532 26.5593C32.3732 20.7385 32.3732 11.2673 26.5532 5.4457C23.7372 2.6297 19.9884 1.0793 15.998 1.0793Z" fill="#090702"/>
<path d="M13.7332 28.5519C13.662 28.5519 13.586 28.5399 13.5068 28.5175C13.3297 28.4591 13.1796 28.3385 13.0845 28.1781C12.9893 28.0176 12.9555 27.8281 12.9892 27.6447L14.9076 17.8775L11.4108 16.8967C11.3005 16.8656 11.1987 16.8098 11.1131 16.7337C11.0274 16.6576 10.9601 16.5631 10.9162 16.4572C10.8723 16.3513 10.853 16.2369 10.8597 16.1225C10.8664 16.0081 10.8989 15.8967 10.9548 15.7967L17.5476 3.83748C17.638 3.67958 17.7812 3.55869 17.952 3.49618C18.1229 3.43367 18.3103 3.43356 18.4812 3.49588C18.6513 3.55823 18.7931 3.68014 18.8802 3.83901C18.9672 3.99789 18.9938 4.18294 18.9548 4.35988L17.238 12.8479L20.5596 13.6383C20.7916 13.7015 20.974 13.8511 21.07 14.0519C21.1192 14.1565 21.144 14.2709 21.1425 14.3865C21.141 14.5021 21.1132 14.6158 21.0612 14.7191L14.414 28.1295C14.351 28.2562 14.2539 28.3628 14.1337 28.4374C14.0134 28.512 13.8748 28.5517 13.7332 28.5519ZM18.118 4.45908L11.654 16.1847L15.4788 17.2071C15.6796 17.2631 15.8036 17.4647 15.7628 17.6695L13.8316 27.4991L20.3444 14.3607L16.6748 13.5367C16.5737 13.5128 16.4859 13.4505 16.4299 13.363C16.3739 13.2755 16.3542 13.1697 16.3748 13.0679L18.118 4.45908Z" fill="#090702"/>
</svg>
