<svg width="32" height="32" viewBox="0 0 32 32" fill="none" xmlns="http://www.w3.org/2000/svg">
<circle cx="16" cy="16" r="16" fill="#FEFAF1"/>
<g clip-path="url(#clip0_764_277)">
<path d="M30.3991 6.92233C29.3174 7.40199 28.155 7.72616 26.935 7.872C28.1804 7.12559 29.1366 5.94362 29.5869 4.53531C28.403 5.23784 27.1078 5.73281 25.7571 5.99885C24.6569 4.82676 23.0895 4.09424 21.3548 4.09424C18.0239 4.09424 15.3234 6.79464 15.3234 10.1252C15.3234 10.598 15.3768 11.0583 15.4796 11.4998C10.4671 11.2482 6.02312 8.84716 3.04838 5.19824C2.52934 6.08899 2.23192 7.12513 2.23192 8.23028C2.23192 10.3228 3.29677 12.1687 4.91499 13.2503C3.95723 13.2203 3.02054 12.9616 2.18312 12.4958C2.18278 12.5211 2.18278 12.5464 2.18278 12.5718C2.18278 15.4939 4.2617 17.9316 7.02067 18.4856C6.13254 18.7272 5.20095 18.7625 4.29707 18.589C5.0645 20.9851 7.29191 22.7287 9.93099 22.7775C7.86687 24.395 5.26626 25.3593 2.44069 25.3593C1.9538 25.3593 1.4738 25.3307 1.00195 25.275C3.67101 26.9862 6.84119 27.9847 10.2471 27.9847C21.3407 27.9847 27.407 18.7945 27.407 10.8247C27.407 10.5631 27.4013 10.303 27.3896 10.0444C28.5703 9.19083 29.5894 8.1336 30.3991 6.92233Z" fill="#55ACEE"/>
</g>
<defs>
<clipPath id="clip0_764_277">
<rect width="29.4" height="24" fill="white" transform="translate(1 4)"/>
</clipPath>
</defs>
</svg>
