<svg width="32" height="32" viewBox="0 0 32 32" fill="none" xmlns="http://www.w3.org/2000/svg">
<path fill-rule="evenodd" clip-rule="evenodd" d="M5.33333 8V4H4V28H5.33333V14.6667H7.33333V16H16.6667V13.778H18.6667C19.0203 13.778 19.3594 13.9185 19.6095 14.1685C19.8595 14.4186 20 14.7577 20 15.1113V15.3333H18.6667V20.6667H28V15.3333H26.6667V14.6667C26.6667 10.9847 23.682 8 20 8H16.6667V6.66667H12.6667V5.33333H17.3333C17.5101 5.33333 17.6797 5.2631 17.8047 5.13807C17.9298 5.01305 18 4.84348 18 4.66667C18 4.48986 17.9298 4.32029 17.8047 4.19526C17.6797 4.07024 17.5101 4 17.3333 4H6.66667C6.48986 4 6.32029 4.07024 6.19526 4.19526C6.07024 4.32029 6 4.48986 6 4.66667C6 4.84348 6.07024 5.01305 6.19526 5.13807C6.32029 5.2631 6.48986 5.33333 6.66667 5.33333H11.3333V6.66667H7.33333V8H5.33333ZM25.3333 14.6667C25.3333 13.2522 24.7714 11.8956 23.7712 10.8954C22.771 9.89524 21.4145 9.33333 20 9.33333H16.6667V12.4447H18.6667C19.3739 12.4447 20.0522 12.7256 20.5523 13.2257C21.0524 13.7258 21.3333 14.4041 21.3333 15.1113V15.3333H25.3333V14.6667ZM26.6667 16.6667H20V19.3333H26.6667V16.6667ZM15.3333 8H8.66667V14.6667H15.3333V8ZM7.33333 13.3333H5.33333V9.33333H7.33333V13.3333Z" fill="#111111"/>
<path fill-rule="evenodd" clip-rule="evenodd" d="M23.6663 28.0007C24.955 28.0007 25.9997 26.9153 25.9997 25.5766C25.9997 23.4553 23.6663 21.334 23.6663 21.334C23.6663 21.334 21.333 23.4553 21.333 25.5766C21.333 26.9153 22.3777 28.0007 23.6663 28.0007ZM23.6663 26.6673C24.171 26.6673 24.6663 26.2273 24.6663 25.5766C24.6663 24.9553 24.2983 24.1853 23.7577 23.448C23.7276 23.407 23.6972 23.3664 23.6663 23.326C23.6357 23.366 23.605 23.4067 23.575 23.448C23.035 24.1847 22.6663 24.9546 22.6663 25.5766C22.6663 26.2273 23.1617 26.6673 23.6663 26.6673Z" fill="#111111"/>
</svg>
